<svg width="780" height="150" viewBox="0 0 780 150" fill="none" xmlns="http://www.w3.org/2000/svg">
<path d="M209.197 109.4C205.917 109.4 202.678 108.96 199.478 108.08C196.358 107.2 193.479 106 190.839 104.48C188.199 102.88 185.92 100.96 184 98.72L193.359 89.24C195.359 91.48 197.678 93.16 200.318 94.28C202.958 95.4 205.877 95.96 209.077 95.96C211.636 95.96 213.556 95.6 214.836 94.88C216.196 94.16 216.876 93.08 216.876 91.64C216.876 90.04 216.156 88.8 214.716 87.92C213.356 87.04 211.556 86.32 209.317 85.76C207.077 85.12 204.717 84.44 202.238 83.72C199.838 82.92 197.518 81.92 195.279 80.72C193.039 79.44 191.199 77.72 189.759 75.56C188.399 73.32 187.72 70.44 187.72 66.92C187.72 63.24 188.599 60.04 190.359 57.32C192.199 54.6 194.799 52.48 198.158 50.96C201.518 49.44 205.477 48.68 210.037 48.68C214.836 48.68 219.155 49.52 222.995 51.2C226.914 52.88 230.154 55.4 232.714 58.76L223.235 68.24C221.475 66.08 219.475 64.52 217.236 63.56C215.076 62.6 212.716 62.12 210.157 62.12C207.837 62.12 206.037 62.48 204.757 63.2C203.557 63.92 202.958 64.92 202.958 66.2C202.958 67.64 203.637 68.76 204.997 69.56C206.437 70.36 208.277 71.08 210.517 71.72C212.756 72.28 215.076 72.96 217.476 73.76C219.955 74.48 222.275 75.52 224.435 76.88C226.674 78.24 228.474 80.04 229.834 82.28C231.274 84.52 231.994 87.4 231.994 90.92C231.994 96.6 229.954 101.12 225.875 104.48C221.795 107.76 216.236 109.4 209.197 109.4Z" fill="#1A1D1C"/>
<path d="M262.51 109.28C257.391 109.28 252.831 108.2 248.832 106.04C244.912 103.88 241.833 100.88 239.593 97.04C237.353 93.2 236.234 88.76 236.234 83.72V50.12H252.071V83.36C252.071 85.76 252.471 87.84 253.271 89.6C254.071 91.28 255.271 92.56 256.871 93.44C258.471 94.32 260.35 94.76 262.51 94.76C265.79 94.76 268.349 93.76 270.189 91.76C272.029 89.76 272.949 86.96 272.949 83.36V50.12H288.667V83.72C288.667 88.84 287.547 93.32 285.307 97.16C283.147 101 280.068 104 276.068 106.16C272.149 108.24 267.629 109.28 262.51 109.28Z" fill="#1A1D1C"/>
<path d="M333.339 108.08L310.902 78.2L333.219 50.12H351.337L325.18 81.8L325.78 74.12L352.537 108.08H333.339ZM296.384 108.08V26H312.102V108.08H296.384Z" fill="#1A1D1C"/>
<path d="M376.517 109.28C371.238 109.28 366.478 107.96 362.239 105.32C357.999 102.68 354.68 99.08 352.28 94.52C349.88 89.96 348.68 84.84 348.68 79.16C348.68 73.4 349.88 68.24 352.28 63.68C354.68 59.12 357.999 55.52 362.239 52.88C366.478 50.24 371.238 48.92 376.517 48.92C380.676 48.92 384.396 49.76 387.675 51.44C390.955 53.12 393.555 55.48 395.474 58.52C397.474 61.48 398.554 64.84 398.714 68.6V89.48C398.554 93.32 397.474 96.72 395.474 99.68C393.555 102.64 390.955 105 387.675 106.76C384.396 108.44 380.676 109.28 376.517 109.28ZM379.396 94.76C383.796 94.76 387.355 93.32 390.075 90.44C392.795 87.48 394.155 83.68 394.155 79.04C394.155 76 393.515 73.32 392.235 71C391.035 68.6 389.315 66.76 387.075 65.48C384.916 64.12 382.356 63.44 379.396 63.44C376.517 63.44 373.957 64.12 371.717 65.48C369.558 66.76 367.838 68.6 366.558 71C365.358 73.32 364.758 76 364.758 79.04C364.758 82.16 365.358 84.92 366.558 87.32C367.838 89.64 369.558 91.48 371.717 92.84C373.957 94.12 376.517 94.76 379.396 94.76ZM393.315 108.08V92.48L395.834 78.32L393.315 64.4V50.12H408.913V108.08H393.315Z" fill="#1A1D1C"/>
<path d="M436.653 108.08V50.12H452.371V108.08H436.653ZM452.371 76.04L446.252 71.96C446.972 64.84 449.052 59.24 452.491 55.16C455.931 51 460.89 48.92 467.369 48.92C470.169 48.92 472.689 49.4 474.928 50.36C477.168 51.24 479.208 52.72 481.048 54.8L471.209 66.08C470.329 65.12 469.249 64.4 467.969 63.92C466.769 63.44 465.37 63.2 463.77 63.2C460.41 63.2 457.651 64.28 455.491 66.44C453.411 68.52 452.371 71.72 452.371 76.04Z" fill="#1A1D1C"/>
<path d="M507.845 109.28C501.766 109.28 496.367 108 491.647 105.44C486.928 102.8 483.169 99.2 480.369 94.64C477.649 90.08 476.289 84.88 476.289 79.04C476.289 73.28 477.609 68.16 480.249 63.68C482.969 59.12 486.648 55.52 491.288 52.88C495.927 50.16 501.086 48.8 506.766 48.8C512.365 48.8 517.284 50.08 521.524 52.64C525.843 55.12 529.203 58.56 531.602 62.96C534.082 67.28 535.322 72.2 535.322 77.72C535.322 78.76 535.242 79.84 535.082 80.96C535.002 82 534.802 83.2 534.482 84.56L485.768 84.68V72.92L527.163 72.8L520.804 77.72C520.644 74.28 520.004 71.4 518.884 69.08C517.844 66.76 516.284 65 514.205 63.8C512.205 62.52 509.725 61.88 506.766 61.88C503.646 61.88 500.926 62.6 498.607 64.04C496.287 65.4 494.487 67.36 493.207 69.92C492.007 72.4 491.407 75.36 491.407 78.8C491.407 82.32 492.047 85.4 493.327 88.04C494.687 90.6 496.607 92.6 499.086 94.04C501.566 95.4 504.446 96.08 507.725 96.08C510.685 96.08 513.365 95.6 515.764 94.64C518.164 93.6 520.244 92.08 522.004 90.08L531.242 99.32C528.443 102.6 525.003 105.08 520.924 106.76C516.924 108.44 512.565 109.28 507.845 109.28Z" fill="#1A1D1C"/>
<path d="M579.238 108.08V74.84C579.238 71.4 578.158 68.6 575.998 66.44C573.839 64.28 571.039 63.2 567.599 63.2C565.36 63.2 563.36 63.68 561.6 64.64C559.84 65.6 558.441 66.96 557.401 68.72C556.441 70.48 555.961 72.52 555.961 74.84L549.842 71.72C549.842 67.16 550.802 63.2 552.721 59.84C554.721 56.4 557.441 53.72 560.88 51.8C564.4 49.88 568.359 48.92 572.759 48.92C576.998 48.92 580.798 50 584.157 52.16C587.517 54.24 590.156 57 592.076 60.44C593.996 63.8 594.956 67.44 594.956 71.36V108.08H579.238ZM540.243 108.08V50.12H555.961V108.08H540.243Z" fill="#1A1D1C"/>
<path d="M610.634 108.08V26H626.351V108.08H610.634ZM597.075 63.92V50.12H639.91V63.92H597.075Z" fill="#1A1D1C"/>
<path d="M666.781 109.28C661.501 109.28 656.742 107.96 652.502 105.32C648.263 102.68 644.943 99.08 642.544 94.52C640.144 89.96 638.944 84.84 638.944 79.16C638.944 73.4 640.144 68.24 642.544 63.68C644.943 59.12 648.263 55.52 652.502 52.88C656.742 50.24 661.501 48.92 666.781 48.92C670.94 48.92 674.66 49.76 677.939 51.44C681.219 53.12 683.818 55.48 685.738 58.52C687.738 61.48 688.818 64.84 688.978 68.6V89.48C688.818 93.32 687.738 96.72 685.738 99.68C683.818 102.64 681.219 105 677.939 106.76C674.66 108.44 670.94 109.28 666.781 109.28ZM669.66 94.76C674.06 94.76 677.619 93.32 680.339 90.44C683.058 87.48 684.418 83.68 684.418 79.04C684.418 76 683.778 73.32 682.499 71C681.299 68.6 679.579 66.76 677.339 65.48C675.179 64.12 672.62 63.44 669.66 63.44C666.781 63.44 664.221 64.12 661.981 65.48C659.821 66.76 658.102 68.6 656.822 71C655.622 73.32 655.022 76 655.022 79.04C655.022 82.16 655.622 84.92 656.822 87.32C658.102 89.64 659.821 91.48 661.981 92.84C664.221 94.12 666.781 94.76 669.66 94.76ZM683.578 108.08V92.48L686.098 78.32L683.578 64.4V50.12H699.176V108.08H683.578Z" fill="#1A1D1C"/>
<path d="M708.282 108.08V26H724V108.08H708.282Z" fill="#1A1D1C"/>
<g clip-path="url(#clip0_266_4146)">
<path d="M98 46.9016C98 50.7676 94.866 53.9016 91 53.9016C87.134 53.9016 84 50.7676 84 46.9016C84 43.0356 87.134 39.9016 91 39.9016C94.866 39.9016 98 43.0356 98 46.9016Z" fill="#1A1D1C"/>
<path d="M126 46.9016C126 50.7676 122.866 53.9016 119 53.9016C115.134 53.9016 112 50.7676 112 46.9016C112 43.0356 115.134 39.9016 119 39.9016C122.866 39.9016 126 43.0356 126 46.9016Z" fill="#1A1D1C"/>
<path d="M140 46.9016C140 50.7676 136.866 53.9016 133 53.9016C129.134 53.9016 126 50.7676 126 46.9016C126 43.0356 129.134 39.9016 133 39.9016C136.866 39.9016 140 43.0356 140 46.9016Z" fill="#1A1D1C"/>
<path d="M84 46.9016C84 50.7676 80.866 53.9016 77 53.9016C73.134 53.9016 70 50.7676 70 46.9016C70 43.0356 73.134 39.9016 77 39.9016C80.866 39.9016 84 43.0356 84 46.9016Z" fill="#1A1D1C"/>
<path d="M98 60.9016C98 64.7676 94.866 67.9016 91 67.9016C87.134 67.9016 84 64.7676 84 60.9016C84 57.0356 87.134 53.9016 91 53.9016C94.866 53.9016 98 57.0356 98 60.9016Z" fill="#1A1D1C"/>
<path d="M112 60.9016C112 64.7676 108.866 67.9016 105 67.9016C101.134 67.9016 98 64.7676 98 60.9016C98 57.0356 101.134 53.9016 105 53.9016C108.866 53.9016 112 57.0356 112 60.9016Z" fill="#1A1D1C"/>
<path d="M140 60.9016C140 64.7676 136.866 67.9016 133 67.9016C129.134 67.9016 126 64.7676 126 60.9016C126 57.0356 129.134 53.9016 133 53.9016C136.866 53.9016 140 57.0356 140 60.9016Z" fill="#1A1D1C"/>
<path d="M70 60.9016C70 64.7676 66.866 67.9016 63 67.9016C59.134 67.9016 56 64.7676 56 60.9016C56 57.0356 59.134 53.9016 63 53.9016C66.866 53.9016 70 57.0356 70 60.9016Z" fill="#1A1D1C"/>
<path d="M84 60.9016C84 64.7676 80.866 67.9016 77 67.9016C73.134 67.9016 70 64.7676 70 60.9016C70 57.0356 73.134 53.9016 77 53.9016C80.866 53.9016 84 57.0356 84 60.9016Z" fill="#1A1D1C"/>
<path d="M112 74.9016C112 78.7676 108.866 81.9016 105 81.9016C101.134 81.9016 98 78.7676 98 74.9016C98 71.0356 101.134 67.9016 105 67.9016C108.866 67.9016 112 71.0356 112 74.9016Z" fill="#1A1D1C"/>
<path d="M126 74.9016C126 78.7676 122.866 81.9016 119 81.9016C115.134 81.9016 112 78.7676 112 74.9016C112 71.0356 115.134 67.9016 119 67.9016C122.866 67.9016 126 71.0356 126 74.9016Z" fill="#1A1D1C"/>
<path d="M154 60.9016C154 64.7676 150.866 67.9016 147 67.9016C143.134 67.9016 140 64.7676 140 60.9016C140 57.0356 143.134 53.9016 147 53.9016C150.866 53.9016 154 57.0356 154 60.9016Z" fill="#1A1D1C"/>
<path d="M70 74.9016C70 78.7676 66.866 81.9016 63 81.9016C59.134 81.9016 56 78.7676 56 74.9016C56 71.0356 59.134 67.9016 63 67.9016C66.866 67.9016 70 71.0356 70 74.9016Z" fill="#1A1D1C"/>
<path d="M84 74.9016C84 78.7676 80.866 81.9016 77 81.9016C73.134 81.9016 70 78.7676 70 74.9016C70 71.0356 73.134 67.9016 77 67.9016C80.866 67.9016 84 71.0356 84 74.9016Z" fill="#1A1D1C"/>
<path d="M112 88.9016C112 92.7676 108.866 95.9016 105 95.9016C101.134 95.9016 98 92.7676 98 88.9016C98 85.0356 101.134 81.9016 105 81.9016C108.866 81.9016 112 85.0356 112 88.9016Z" fill="#1A1D1C"/>
<path d="M126 88.9016C126 92.7676 122.866 95.9016 119 95.9016C115.134 95.9016 112 92.7676 112 88.9016C112 85.0356 115.134 81.9016 119 81.9016C122.866 81.9016 126 85.0356 126 88.9016Z" fill="#1A1D1C"/>
<path d="M154 74.9016C154 78.7676 150.866 81.9016 147 81.9016C143.134 81.9016 140 78.7676 140 74.9016C140 71.0356 143.134 67.9016 147 67.9016C150.866 67.9016 154 71.0356 154 74.9016Z" fill="#1A1D1C"/>
<path d="M84 89.9016C84 93.7676 80.866 96.9016 77 96.9016C73.134 96.9016 70 93.7676 70 89.9016C70 86.0356 73.134 82.9016 77 82.9016C80.866 82.9016 84 86.0356 84 89.9016Z" fill="#1A1D1C"/>
<path d="M98 74.9016C98 78.7676 94.866 81.9016 91 81.9016C87.134 81.9016 84 78.7676 84 74.9016C84 71.0356 87.134 67.9016 91 67.9016C94.866 67.9016 98 71.0356 98 74.9016Z" fill="#1A1D1C"/>
<path d="M112 102.902C112 106.768 108.866 109.902 105 109.902C101.134 109.902 98 106.768 98 102.902C98 99.0356 101.134 95.9016 105 95.9016C108.866 95.9016 112 99.0356 112 102.902Z" fill="#1A1D1C"/>
<path d="M140 74.9016C140 78.7676 136.866 81.9016 133 81.9016C129.134 81.9016 126 78.7676 126 74.9016C126 71.0356 129.134 67.9016 133 67.9016C136.866 67.9016 140 71.0356 140 74.9016Z" fill="#1A1D1C"/>
<path d="M98 88.9016C98 92.7676 94.866 95.9016 91 95.9016C87.134 95.9016 84 92.7676 84 88.9016C84 85.0356 87.134 81.9016 91 81.9016C94.866 81.9016 98 85.0356 98 88.9016Z" fill="#1A1D1C"/>
<path d="M112 116.902C112 120.768 108.866 123.902 105 123.902C101.134 123.902 98 120.768 98 116.902C98 113.036 101.134 109.902 105 109.902C108.866 109.902 112 113.036 112 116.902Z" fill="#1A1D1C"/>
<path d="M126 60.9016C126 64.7676 122.866 67.9016 119 67.9016C115.134 67.9016 112 64.7676 112 60.9016C112 57.0356 115.134 53.9016 119 53.9016C122.866 53.9016 126 57.0356 126 60.9016Z" fill="#1A1D1C"/>
<path d="M98 102.902C98 106.768 94.866 109.902 91 109.902C87.134 109.902 84 106.768 84 102.902C84 99.0356 87.134 95.9016 91 95.9016C94.866 95.9016 98 99.0356 98 102.902Z" fill="#1A1D1C"/>
<path d="M126 102.902C126 106.768 122.866 109.902 119 109.902C115.134 109.902 112 106.768 112 102.902C112 99.0356 115.134 95.9016 119 95.9016C122.866 95.9016 126 99.0356 126 102.902Z" fill="#1A1D1C"/>
<path d="M140 88.9016C140 92.7676 136.866 95.9016 133 95.9016C129.134 95.9016 126 92.7676 126 88.9016C126 85.0356 129.134 81.9016 133 81.9016C136.866 81.9016 140 85.0356 140 88.9016Z" fill="#1A1D1C"/>
</g>
<defs>
<clipPath id="clip0_266_4146">
<rect width="98" height="98" fill="white" transform="translate(56 25.9016)"/>
</clipPath>
</defs>
</svg>
